<svg width="400" height="35" viewBox="0 0 400 35" fill="none" xmlns="http://www.w3.org/2000/svg">
<path fill-rule="evenodd" clip-rule="evenodd" d="M319.348 1.90318C322.966 1.90331 326.044 2.455 328.322 3.2394L328.601 3.33739L328.627 3.63136C328.719 4.63898 328.792 5.65501 328.865 6.66606L329.102 9.68591L328.271 9.98285C327.071 8.20858 325.789 6.82978 324.305 5.89402C322.828 4.96253 321.125 4.45684 319.054 4.45684C316.087 4.45703 313.781 5.49728 312.206 7.37277C310.622 9.25914 309.736 12.0434 309.736 15.6039L309.748 16.3135C309.884 19.8253 311.033 22.6152 312.88 24.5565C314.848 26.6251 317.651 27.7724 320.99 27.7724C322.631 27.7722 324.052 27.5503 325.344 27.1844C325.344 25.6125 325.345 23.751 325.312 21.89C325.295 21.145 325.124 20.6594 324.777 20.242C324.41 19.8007 323.815 19.3958 322.854 18.888L323.068 18.0298H332.492L331.32 18.8583C330.713 19.2871 330.34 19.6235 330.109 20.0193C329.882 20.4075 329.761 20.903 329.761 21.697L329.779 26.0709C329.788 27.4572 329.797 28.8279 329.797 30.3438V31.1218L326.303 29.168C326.159 29.2647 325.999 29.3596 325.819 29.4382C324.189 30.2348 322.005 30.8724 319.054 30.8724C314.995 30.8722 311.367 29.5139 308.751 27.0389C306.132 24.5609 304.557 20.9903 304.557 16.6253C304.557 12.2324 306.045 8.54159 308.659 5.95044C311.272 3.36055 314.978 1.90318 319.348 1.90318ZM324.338 29.5688C324.106 29.6518 323.865 29.7326 323.614 29.8064L324.338 29.5688C324.57 29.4859 324.792 29.4008 325.006 29.3105L324.338 29.5688ZM309.769 19.6957C309.796 19.7988 309.827 19.9001 309.855 20.0015C309.808 19.8353 309.763 19.6673 309.722 19.4967L309.769 19.6957ZM309.499 18.407C309.514 18.4997 309.533 18.5915 309.549 18.6831C309.525 18.5507 309.502 18.4171 309.481 18.2822L309.499 18.407Z" fill="#F5EDE2"/>
<path fill-rule="evenodd" clip-rule="evenodd" d="M8.69746 2.01008C10.1332 2.01008 11.3539 2.15924 12.3189 2.30702C12.7762 2.37706 13.2454 2.45909 13.5657 2.50893C13.7414 2.53628 13.8929 2.55674 14.0228 2.57129L14.3523 2.59505H14.8094V8.34078L13.9367 8.53082C13.3383 7.21045 12.5975 6.20584 11.6599 5.53176C10.728 4.86207 9.56662 4.49272 8.08003 4.49248C6.80293 4.49248 5.81794 4.81933 5.16504 5.39813C4.60193 5.89746 4.24125 6.62446 4.17062 7.60735L4.15875 8.04385V8.04978L4.18547 8.48925C4.30901 9.48966 4.85521 10.3379 5.72014 11.1617C6.7206 12.1142 8.08678 12.982 9.59689 13.9767C12.798 15.978 16.0111 18.359 16.0116 22.7898V22.7957C15.9922 25.2139 15.0761 27.2389 13.4321 28.6543C11.7943 30.0641 9.47398 30.8365 6.69378 30.8368C4.74255 30.8368 2.96679 30.5809 1.47827 30.0558L0.857872 29.8153L0.848967 29.8093C0.578585 29.6845 0.336562 29.5257 0.181073 29.2719C0.0276525 29.0211 0 28.7435 0 28.482C0.000149889 27.8428 0.146793 25.4845 0.255284 23.6034L1.1369 23.4668C1.79256 25.1862 2.62701 26.4103 3.65709 27.2052C4.68089 27.995 5.93659 28.393 7.49525 28.393C8.93751 28.3929 10.0409 28.0265 10.7724 27.3982C11.4033 26.8563 11.7989 26.0835 11.8766 25.0702L11.8915 24.6219C11.8752 23.3708 11.3292 22.382 10.3924 21.4535C9.44015 20.51 8.11825 19.6604 6.59285 18.6861L6.58988 18.6831C3.42505 16.6089 0.216694 14.1541 0.216694 9.69185C0.23585 7.35405 1.07439 5.41645 2.57659 4.07082C4.0735 2.73002 6.18741 2.01031 8.69746 2.01008ZM3.82035 9.02671C3.83651 9.09029 3.86048 9.15141 3.87972 9.21378C3.8575 9.14182 3.83251 9.0706 3.81441 8.99701L3.82035 9.02671ZM9.50784 4.15991C9.4064 4.14154 9.3037 4.12368 9.19912 4.10943L9.16647 4.10646C9.2822 4.1217 9.39594 4.13966 9.50784 4.15991ZM7.80693 2.50003C7.51783 2.52146 7.23567 2.5528 6.96094 2.59505C7.51029 2.51072 8.092 2.46742 8.69746 2.46736C8.39378 2.46739 8.09684 2.47853 7.80693 2.50003ZM10.6447 2.55941C10.9148 2.58434 11.1732 2.6118 11.4195 2.64256C10.9025 2.57772 10.3325 2.52164 9.71266 2.49112L10.6447 2.55941Z" fill="#F5EDE2"/>
<path fill-rule="evenodd" clip-rule="evenodd" d="M276.294 2.11995C280.875 2.11995 284.759 3.33471 287.503 5.68616C290.257 8.04576 291.816 11.51 291.816 15.8949L291.795 16.753C291.603 20.9969 289.983 24.4405 287.378 26.8637C284.605 29.4443 280.75 30.8368 276.404 30.8368C274.84 30.8367 273.443 30.7642 272.121 30.6913C271.458 30.6547 270.816 30.6175 270.179 30.5903L268.271 30.5458H264.658L264.483 29.6668C265.236 29.3487 265.728 28.953 266.053 28.3633C266.389 27.7548 266.576 26.8904 266.611 25.5869V25.5721C266.72 23.7651 266.721 21.7748 266.721 17.7567C266.721 14.6001 266.762 11.7065 266.721 8.98514L266.647 6.31864C266.613 5.55302 266.453 4.98865 266.124 4.51029C265.874 4.14679 265.51 3.80716 264.973 3.46804L264.376 3.12656L264.587 2.26545H267.831C269.192 2.26545 270.592 2.2307 272.011 2.19418C273.428 2.15772 274.865 2.11996 276.294 2.11995ZM279.66 28.776C279.49 28.8191 279.316 28.8571 279.141 28.8918C279.493 28.8222 279.836 28.7366 280.168 28.6335L279.66 28.776ZM273.391 28.7018C273.485 28.7259 273.582 28.745 273.679 28.7671C273.409 28.706 273.151 28.6414 272.91 28.5652L273.391 28.7018ZM274.982 4.45684C274.204 4.45684 273.562 4.47532 273.053 4.5192C272.535 4.56387 272.187 4.63159 271.978 4.71518C271.788 4.7912 271.694 4.87805 271.625 5.01805C271.541 5.18865 271.479 5.47368 271.462 5.98607C271.425 8.32505 271.427 13.5234 271.39 17.7596C271.39 22.0247 271.463 24.9612 271.607 26.6915C271.662 27.3262 272.032 27.7449 272.634 27.9862C273.697 28.3974 275.202 28.6483 276.915 28.6483C279.914 28.6483 282.317 27.5552 283.976 25.6107C285.643 23.6574 286.601 20.7972 286.601 17.2073C286.6 13.1707 285.439 9.98901 283.433 7.82114C281.43 5.6571 278.541 4.45691 274.982 4.45684ZM270.987 23.1876C270.992 23.4168 271.004 23.6384 271.01 23.8528C270.983 22.9411 270.96 21.8961 270.948 20.7142L270.987 23.1876ZM286.939 15.0427L286.933 14.9773C286.911 14.787 286.883 14.5992 286.856 14.4131C286.886 14.6204 286.915 14.83 286.939 15.0427ZM277.876 4.28462C277.787 4.26626 277.697 4.24479 277.606 4.2282L277.547 4.21929C277.658 4.23901 277.767 4.26229 277.876 4.28462ZM273.445 2.61583C272.257 2.64247 271.075 2.67617 269.909 2.69897L272.023 2.64849C272.495 2.63633 272.97 2.62664 273.445 2.61583ZM277.948 2.63365C278.047 2.64048 278.146 2.64932 278.244 2.6574C277.879 2.62745 277.508 2.6048 277.131 2.59208L277.948 2.63365Z" fill="#F5EDE2"/>
<path fill-rule="evenodd" clip-rule="evenodd" d="M215.801 3.12063C214.95 3.5992 214.417 4.03212 214.091 4.50138C213.774 4.95832 213.625 5.49159 213.625 6.22659V17.3172C213.625 19.8148 213.669 23.1539 213.75 25.2395L213.842 26.8311L213.845 26.84C213.895 27.4229 214.046 27.7188 214.239 27.8852C214.44 28.0575 214.779 28.1731 215.394 28.1732H219.152C220.16 28.1732 220.795 27.8271 221.352 27.1785C221.945 26.4879 222.436 25.4755 223.124 24.1171L223.985 24.3576L223.513 30.6319L223.076 30.617C222.564 30.5987 222.099 30.5801 221.619 30.5665L220.064 30.5458H207.005L206.81 29.6757C207.561 29.3167 207.998 28.954 208.282 28.4226C208.579 27.8674 208.741 27.0744 208.813 25.7918C208.922 23.9096 208.959 21.1134 208.959 17.3202C208.922 12.8971 208.958 9.70237 208.849 6.20877C208.815 5.48108 208.664 4.95992 208.356 4.50732C208.12 4.16045 207.775 3.82961 207.267 3.47695L206.7 3.11469L205.278 2.26545H217.318L215.801 3.12063Z" fill="#F5EDE2"/>
<path fill-rule="evenodd" clip-rule="evenodd" d="M250.807 8.15965L249.941 8.36157C249.325 7.11113 248.91 6.23515 248.388 5.65053C247.968 5.18042 247.475 4.89719 246.693 4.83395L246.337 4.82208H241.76V14.4547H246.702C247.739 14.4547 248.567 14.2815 249.445 14.0004L250.101 13.7926L249.673 18.4901L248.795 18.6178C248.498 17.8754 248.29 17.4386 248.041 17.1747C247.882 17.0069 247.691 16.894 247.382 16.848L247.032 16.8243H241.76V18.5584L241.792 23.3302C241.815 24.6333 241.851 25.7184 241.905 26.7657C241.955 27.3279 242.105 27.629 242.303 27.8021C242.506 27.9791 242.849 28.099 243.458 28.099H247.322C248.291 28.099 248.899 27.7969 249.427 27.226C249.991 26.6161 250.464 25.7052 251.113 24.4437L251.971 24.6872L251.535 30.1983L251.499 30.6319L251.063 30.617C250.551 30.5987 250.088 30.5801 249.608 30.5665L248.053 30.5458H235.066L234.87 29.6787C235.737 29.2624 236.192 28.8706 236.47 28.3217C236.763 27.7433 236.89 26.9294 236.945 25.581V25.575C237.053 23.7309 237.055 21.1186 237.055 17.3172C237.055 12.8958 237.09 9.91595 236.945 6.42554V6.4196C236.928 5.6546 236.784 5.09533 236.47 4.60828C236.23 4.23589 235.874 3.87954 235.345 3.5007L234.757 3.11172L233.377 2.26545H247.504C248.468 2.26545 249.363 2.19614 250.315 2.12292L250.807 2.08431V8.15965Z" fill="#F5EDE2"/>
<path fill-rule="evenodd" clip-rule="evenodd" d="M359.888 8.15965L359.024 8.36157C358.408 7.11075 357.99 6.23515 357.469 5.65053C357.048 5.18021 356.556 4.89702 355.774 4.83395L355.42 4.82208H350.84V14.4547H355.785C356.821 14.4546 357.648 14.2812 358.525 14.0004L359.181 13.7926L358.754 18.4901L357.878 18.6178C357.581 17.8748 357.371 17.4387 357.121 17.1747C356.91 16.9514 356.642 16.8243 356.112 16.8243H350.84V18.5584L350.873 23.3302C350.895 24.6333 350.932 25.7184 350.986 26.7657C351.035 27.328 351.185 27.629 351.383 27.8021C351.586 27.9794 351.929 28.099 352.538 28.099H356.403C357.371 28.099 357.98 27.7966 358.507 27.226C359.071 26.6161 359.545 25.705 360.194 24.4437L361.054 24.6872L360.615 30.1983L360.582 30.6319L360.146 30.617C359.634 30.5987 359.169 30.5801 358.689 30.5665L357.133 30.5458H344.149L343.95 29.6787C344.817 29.2624 345.272 28.8706 345.55 28.3217C345.843 27.7433 345.974 26.9297 346.028 25.581V25.575C346.137 23.7309 346.135 21.1186 346.135 17.3172C346.135 14.0011 346.157 11.4967 346.105 8.9792L346.028 6.42554L346.025 6.4196L346.028 6.41663C346.011 5.65207 345.867 5.09513 345.553 4.60828C345.313 4.23573 344.955 3.87973 344.425 3.5007L343.838 3.11172L342.457 2.26545H356.587C357.551 2.26542 358.446 2.19615 359.398 2.12292L359.888 2.08431V8.15965Z" fill="#F5EDE2"/>
<path fill-rule="evenodd" clip-rule="evenodd" d="M49.4627 2.59208L49.2816 8.57536L48.4089 8.74759C47.7712 7.34033 47.3816 6.36447 46.8921 5.70992C46.6587 5.39801 46.4178 5.18218 46.1381 5.04181C45.9281 4.93648 45.6781 4.86656 45.3663 4.83692L45.0309 4.82208H39.4681V17.3172C39.4681 21.8053 39.5044 24.1999 39.6491 26.3352C39.7016 27.1927 39.8574 27.8332 40.1716 28.3454C40.4823 28.8518 40.9783 29.2825 41.7983 29.6757L41.6024 30.5458H32.703L32.519 29.6698C33.3533 29.3047 33.8469 28.9352 34.1605 28.4048C34.4831 27.859 34.656 27.0794 34.6919 25.8066V25.8007C34.7645 23.9124 34.7987 21.1097 34.7987 17.3172C34.7987 13.4156 34.7987 8.80568 34.7661 4.82208H29.2745C28.3508 4.82208 27.7438 5.12645 27.2085 5.73664C26.6411 6.3835 26.1569 7.3674 25.5313 8.74759L24.6586 8.54567L24.8575 2.08431L25.3325 2.12292C26.2843 2.19616 27.1793 2.26545 28.1436 2.26545H46.1618C47.1261 2.26545 48.0211 2.19616 48.9729 2.12292L49.4776 2.08431L49.4627 2.59208ZM28.5384 4.43309C28.3578 4.46912 28.1884 4.52022 28.0278 4.58453C28.1945 4.51783 28.3709 4.46638 28.5591 4.43012L28.5384 4.43309Z" fill="#F5EDE2"/>
<path fill-rule="evenodd" clip-rule="evenodd" d="M68.98 2.55644L70.767 7.1174L78.0604 25.575C78.8336 27.493 79.6893 28.627 80.9725 29.3758L81.5483 29.6728L81.3584 30.5458H71.9841L71.8208 29.6638C72.4292 29.4312 72.9332 29.1842 73.2783 28.9096C73.6166 28.6402 73.7533 28.3835 73.7533 28.1168C73.753 27.7776 73.6671 27.384 73.4713 26.8251L73.2397 26.2075L73.2368 26.2045L71.2331 21.0942H62.7701L60.5527 26.6826L60.5498 26.6796C60.314 27.2869 60.2559 27.7057 60.2559 28.0812C60.2559 28.3664 60.3936 28.6273 60.7546 28.8948C61.0359 29.1029 61.4282 29.296 61.9241 29.4768L62.4525 29.652L62.3189 30.5458H54.7317L54.5654 29.6638C55.5525 29.2827 56.2361 28.8262 56.771 28.2296C57.3111 27.627 57.7258 26.8542 58.1364 25.8007L65.3942 7.44403L65.3972 7.44106C65.9502 6.07648 66.7807 4.1289 67.2495 2.75836L67.3326 2.5119L67.5879 2.45846L68.4606 2.27732L68.8376 2.19715L68.98 2.55644ZM74.2074 28.1168C74.2074 28.3448 74.1468 28.5528 74.0353 28.7433L74.1629 28.4464C74.1925 28.3418 74.2074 28.2313 74.2074 28.1168ZM59.8462 28.4197C59.8535 28.4457 59.87 28.4685 59.8789 28.4939C59.8519 28.4166 59.8248 28.3393 59.8136 28.2564L59.8462 28.4197ZM63.6814 18.7959H70.3307L67.0179 10.3481L63.6814 18.7959Z" fill="#F5EDE2"/>
<path fill-rule="evenodd" clip-rule="evenodd" d="M107.994 8.15965L107.13 8.36454C106.497 7.09879 106.065 6.2231 105.524 5.64459C105.087 5.17666 104.569 4.89616 103.749 4.83395L103.381 4.82208H98.9492V14.4904H103.452C104.484 14.4904 105.385 14.2844 106.201 14.036L106.851 13.8371L106.789 14.5141L106.424 18.5257L105.548 18.6534C105.251 17.9108 105.041 17.4743 104.791 17.2103C104.632 17.0428 104.441 16.9295 104.132 16.8837L103.782 16.8629H98.9492V18.5584L98.9611 22.7066C98.9746 23.837 99.0019 24.759 99.056 25.6077C99.1281 26.8872 99.299 27.7309 99.62 28.3336C99.8516 28.7679 100.177 29.103 100.659 29.3936L101.196 29.6728L101.009 30.5458H92.3296L92.1248 29.6817C92.8676 29.3101 93.3174 28.9034 93.612 28.3217C93.9176 27.7179 94.0804 26.8771 94.1344 25.581V25.575C94.2429 23.7295 94.2798 21.114 94.2799 17.3202C94.2524 13.9963 94.2868 11.4752 94.2442 8.96435L94.17 6.42851C94.136 5.68069 93.986 5.12556 93.6713 4.63204C93.3511 4.13007 92.8351 3.65179 92.0031 3.10281L90.7356 2.26545H104.693C105.653 2.26545 106.506 2.19474 107.472 2.05165L107.994 1.97445V8.15965Z" fill="#F5EDE2"/>
<path fill-rule="evenodd" clip-rule="evenodd" d="M135.769 8.15965L134.906 8.36454C134.273 7.09866 133.84 6.22309 133.3 5.64459C132.862 5.17716 132.346 4.89655 131.528 4.83395L131.156 4.82208H126.725V14.4904H131.228C132.26 14.4904 133.163 14.2845 133.979 14.036L134.627 13.8371L134.564 14.5141L134.199 18.5257L133.323 18.6534C133.026 17.9109 132.816 17.4743 132.566 17.2103C132.408 17.0433 132.218 16.9297 131.91 16.8837L131.557 16.8629H126.725V18.5584L126.739 22.7066C126.753 23.8369 126.777 24.759 126.832 25.6077L126.834 25.6107C126.907 26.8902 127.074 27.7309 127.396 28.3336C127.627 28.7679 127.953 29.103 128.434 29.3936L128.972 29.6728L128.785 30.5458H120.105L119.9 29.6817C120.643 29.3101 121.093 28.9034 121.387 28.3217C121.693 27.7179 121.856 26.8772 121.91 25.581V25.575C122.018 23.7295 122.055 21.114 122.055 17.3202C122.028 13.9963 122.062 11.4752 122.02 8.96435L121.945 6.42851C121.911 5.6807 121.761 5.12555 121.447 4.63204C121.127 4.13013 120.611 3.65173 119.779 3.10281L118.511 2.26545H132.469C133.428 2.26545 134.282 2.19471 135.247 2.05165L135.769 1.97445V8.15965Z" fill="#F5EDE2"/>
<path fill-rule="evenodd" clip-rule="evenodd" d="M383.516 2.15855C386.225 2.15857 388.548 2.79224 390.207 4.06192C391.881 5.34381 392.837 7.2425 392.837 9.65621L392.816 10.3748C392.721 12.0108 392.294 13.3483 391.558 14.5111C390.794 15.7169 389.706 16.6985 388.382 17.6379C390.301 20.3539 392.025 22.7053 393.547 24.6248L395.061 26.4718L395.064 26.4747C396.419 28.08 397.514 28.961 398.679 29.7025L400 30.5458H393.036C392.611 30.5457 392.25 30.5203 391.929 30.3884C391.677 30.2845 391.478 30.126 391.294 29.9281L391.113 29.7173L391.098 29.6995C390.655 29.0909 390.166 28.3617 389.599 27.4873L387.619 24.3873C386.929 23.2986 386.228 22.2504 385.609 21.3348C385 20.4342 384.463 19.6503 384.095 19.081C384.095 19.081 384.086 19.0756 384.077 19.0721L383.917 19.0513L380.361 19.0186C380.363 21.5823 380.386 23.5295 380.453 25.1118L380.542 26.6618C380.593 27.3918 380.761 27.955 381.079 28.4197C381.399 28.886 381.9 29.2972 382.691 29.6757L382.495 30.5458H373.813L373.602 29.6846C374.36 29.2882 374.796 28.8988 375.062 28.4672C375.331 28.0327 375.458 27.5052 375.511 26.7717C375.619 25.3664 375.692 22.7863 375.692 19.6155V13.1957C375.692 10.3549 375.655 8.35251 375.582 6.2058C375.547 5.55953 375.402 5.03046 375.089 4.55483C374.85 4.19157 374.5 3.83796 373.994 3.47695L373.436 3.11469L372.011 2.26545H378.155C378.913 2.26542 379.837 2.23941 380.782 2.212C381.724 2.18469 382.688 2.15855 383.516 2.15855ZM375.965 26.8043C375.937 27.1878 375.889 27.5323 375.807 27.8466C375.726 28.1611 375.61 28.4452 375.448 28.7077C375.773 28.1828 375.91 27.5715 375.965 26.8043ZM387.788 17.5072C388.118 17.2817 388.434 17.0571 388.732 16.8272L388.794 16.7768C388.478 17.0235 388.142 17.2657 387.788 17.5072ZM382.46 4.38261C381.731 4.38261 381.017 4.41983 380.533 4.54889L380.506 4.5578C380.46 4.5671 380.434 4.57765 380.423 4.58453C380.414 4.59052 380.408 4.59759 380.403 4.60531C380.389 4.626 380.361 4.68987 380.361 4.83989V16.1859C380.361 16.2172 380.362 16.242 380.364 16.2601L380.394 16.269C381.203 16.5725 382.35 16.753 383.591 16.753C385.126 16.7527 386.174 16.2026 386.856 15.2772C387.555 14.3289 387.912 12.9267 387.913 11.1528C387.913 9.00166 387.449 7.30857 386.559 6.16423C385.683 5.03866 384.348 4.38289 382.46 4.38261ZM388.301 12.4207C388.263 12.7737 388.202 13.1097 388.129 13.4303C388.199 13.1213 388.261 12.7984 388.298 12.4593L388.301 12.4207ZM388.307 9.8908C388.345 10.2951 388.367 10.7159 388.367 11.1528L388.346 10.3421C388.337 10.1893 388.321 10.0391 388.307 9.8908ZM380.094 4.2668C380.058 4.30162 380.033 4.34416 380.008 4.38855C380.052 4.31172 380.106 4.24619 380.183 4.19851L380.094 4.2668Z" fill="#F5EDE2"/>
<path d="M167.247 34.0413C165.454 34.0109 163.706 33.7525 162.004 33.266C160.332 32.8099 158.827 32.0953 157.49 31.1223C156.152 30.1189 155.089 28.857 154.298 27.3367C153.508 25.8164 153.113 24.0072 153.113 21.9092C153.113 20.4801 153.386 19.1422 153.933 17.8955C154.511 16.6185 155.347 15.5542 156.441 14.7029C157.566 13.8211 158.964 13.2434 160.636 12.9697V12.8329C159.633 12.0727 158.903 11.2517 158.447 10.37C157.991 9.48817 157.763 8.53037 157.763 7.49655C157.763 5.52014 158.478 3.9238 159.906 2.70755C161.365 1.46089 163.387 0.837558 165.971 0.837558C167.095 0.837558 168.144 1.00479 169.117 1.33926C170.089 1.67373 170.88 2.19064 171.487 2.88999C172.126 3.58933 172.445 4.48632 172.445 5.58095C172.445 6.49314 172.171 7.31412 171.624 8.04387C171.108 8.77362 170.348 9.1385 169.345 9.1385C168.676 9.1385 168.159 8.97126 167.794 8.6368C167.43 8.30232 167.247 8.05907 167.247 7.90704C167.247 7.84623 167.369 7.7246 167.612 7.54216C167.885 7.32932 168.144 7.05566 168.387 6.72119C168.63 6.35631 168.752 5.91542 168.752 5.39851C168.752 4.48632 168.433 3.77177 167.794 3.25486C167.156 2.73796 166.381 2.4795 165.469 2.4795C163.919 2.4795 162.764 2.9508 162.004 3.8934C161.244 4.80559 160.864 5.86981 160.864 7.08607C160.864 9.30573 161.791 10.9173 163.645 11.9207H165.15C165.515 11.9207 165.803 11.9511 166.016 12.0119C166.259 12.0727 166.396 12.4072 166.426 13.0153C166.426 13.289 166.35 13.5474 166.198 13.7907C166.077 14.0035 165.864 14.1099 165.56 14.1099H163.964C162.566 14.2316 161.426 14.6573 160.545 15.387C159.663 16.0864 159.01 16.9529 158.584 17.9868C158.159 19.0206 157.946 20.0848 157.946 21.1794C157.946 23.1558 158.402 24.8738 159.314 26.3333C160.226 27.7928 161.487 28.9178 163.098 29.7084C164.739 30.4686 166.594 30.8487 168.661 30.8487C170.88 30.8487 172.901 30.3926 174.725 29.4804C176.579 28.5682 178.053 27.3063 179.147 25.6948C180.272 24.0528 180.834 22.198 180.834 20.1304C180.834 19.0358 180.622 17.9868 180.196 16.9833C179.801 15.9799 179.193 15.159 178.372 14.5204C177.552 13.8819 176.549 13.5626 175.363 13.5626C174.877 13.5626 174.314 13.669 173.676 13.8819C173.068 14.0947 172.551 14.4292 172.126 14.8853C171.7 15.311 171.503 15.8735 171.533 16.5729C171.563 16.9681 171.7 17.3482 171.943 17.7131C172.187 18.0476 172.567 18.2604 173.083 18.3516C173.6 18.4124 174.056 18.3516 174.451 18.1692C174.846 17.9868 175.15 17.7891 175.363 17.5763C175.606 17.3634 175.758 17.257 175.819 17.257C175.971 17.2874 176.169 17.5155 176.412 17.9411C176.685 18.3668 176.777 18.8989 176.685 19.5375C176.564 20.3585 176.199 20.997 175.591 21.4531C175.013 21.8788 174.314 22.0916 173.494 22.0916C172.339 22.0916 171.411 21.6355 170.712 20.7233C170.013 19.7807 169.664 18.5797 169.664 17.1202C169.664 15.539 169.952 14.2468 170.53 13.2434C171.138 12.2399 171.928 11.4494 172.901 10.8717C173.904 10.2939 175.013 9.86825 176.229 9.59459C177.445 9.29053 178.676 9.06248 179.923 8.91045C181.199 8.75842 182.415 8.62159 183.57 8.49996C184.725 8.34793 185.713 8.13509 186.534 7.86143C187.203 7.61818 187.765 7.26851 188.221 6.81241C188.677 6.35632 188.89 5.83941 188.859 5.26169C188.829 4.89681 188.692 4.57754 188.449 4.30388C188.206 4.03023 187.78 3.84779 187.172 3.75657C186.655 3.69576 186.199 3.75657 185.804 3.93901C185.409 4.12145 185.09 4.31909 184.847 4.53193C184.634 4.74478 184.497 4.8512 184.436 4.8512C184.315 4.82079 184.117 4.59274 183.844 4.16705C183.57 3.74137 183.479 3.20925 183.57 2.57072C183.692 1.74975 184.026 1.14162 184.573 0.746338C185.12 0.320648 185.743 0.0773978 186.443 0.0165858C187.172 -0.044228 187.856 0.0621939 188.494 0.335851C189.315 0.731135 189.877 1.33926 190.181 2.16023C190.485 2.9508 190.622 3.74136 190.592 4.53193C190.561 6.20428 189.999 7.63338 188.905 8.81923C187.841 10.0051 186.427 10.9173 184.664 11.5558C182.932 12.1639 181.032 12.468 178.965 12.468C180.211 13.5322 181.169 14.7029 181.838 15.9799C182.537 17.257 182.886 18.6557 182.886 20.176C182.886 23.0646 182.187 25.5579 180.789 27.656C179.391 29.7236 177.506 31.32 175.135 32.445C172.795 33.5396 170.165 34.0717 167.247 34.0413Z" fill="#CEB085"/>
</svg>
